<svg xmlns="http://www.w3.org/2000/svg" viewBox="0 0 1024 1024" width="1024" height="1024" data-asset="PFP_PORTRAIT" data-style="lda-pfp-v2" data-rig="arena" data-pfp-style="neon-competitive" data-engine="procedural-svg" data-layered="1" data-signature="CROWN" data-character-scale="0.76" data-face-scale="0.52" data-face-top="176" data-face-bottom="708" data-species="human" data-face="male_lean" data-age="adult" data-archetype="celebrity" data-cast="dracula" aria-hidden="true"><defs><radialGradient id="dracula_felt" cx="50%" cy="42%" r="68%"><stop offset="0%" stop-color="#241C14"/><stop offset="55%" stop-color="#16130F"/><stop offset="100%" stop-color="#12100C"/></radialGradient><radialGradient id="dracula_team" cx="50%" cy="40%" r="48%"><stop offset="0%" stop-color="#F43B5F" stop-opacity="0.42"/><stop offset="70%" stop-color="#7A1C2C" stop-opacity="0.2"/><stop offset="100%" stop-color="#7A1C2C" stop-opacity="0"/></radialGradient><linearGradient id="dracula_metal" x1="0" y1="0" x2="1" y2="1"><stop offset="0%" stop-color="#F2F4F6"/><stop offset="45%" stop-color="#A8B2BA"/><stop offset="100%" stop-color="#5A646C"/></linearGradient><radialGradient id="dracula_vig" cx="50%" cy="46%" r="72%"><stop offset="62%" stop-color="#000000" stop-opacity="0"/><stop offset="100%" stop-color="#000000" stop-opacity="0.4"/></radialGradient><clipPath id="dracula_face"><path d="M 530 208 C 639.12 196, 714 292, 706 439.4 C 712 525.4, 658 626, 610.64 676 Q 530 726, 449.36 676 C 402 626, 348 525.4, 354 439.4 C 346 292, 420.88 196, 530 208 Z"/></clipPath></defs><g data-layer="bg"><rect width="1024" height="1024" fill="url(#dracula_felt)"/></g><g data-layer="bgGrid"><g stroke="#E4C27A" stroke-width="2" opacity="0.07"><path d="M180 0 V1024 M844 0 V1024 M0 180 H1024" fill="none"/></g></g><g data-layer="bgFx"><circle cx="512" cy="460" r="340" fill="url(#dracula_team)"/></g><g data-layer="aura"><ellipse cx="512" cy="430" rx="300" ry="250" fill="#E4C27A" opacity="0.08"/></g><g data-layer="particles"><circle cx="180" cy="220" r="3" fill="#E4C27A" opacity="0.45"/><circle cx="840" cy="260" r="2.5" fill="#E4C27A" opacity="0.35"/><circle cx="760" cy="180" r="2" fill="#E4C27A" opacity="0.4"/></g><g data-layer="torso"><path d="M 160 1040 L 184 860 Q 330 730 452 712 L 608 712 Q 730 730 876 860 L 900 1040 Z" fill="#7A1C2C"/><path d="M 510 712 L 184 860 L 160 1040 L 450 1040 Z" fill="#8f404e" opacity="0.55"/><path d="M 560 712 L 876 860 L 900 1040 L 600 1040 Z" fill="#3A0E16" opacity="0.72"/></g><g data-layer="collarFx"><path d="M 380 760 L 412 560 L 482 700 L 530 760 Z" fill="#7A1C2C"/><path d="M 680 760 L 648 560 L 578 700 L 530 760 Z" fill="#3A0E16"/><path d="M 412 560 L 380 760 L 398 748 L 426 572 Z" fill="#E4C27A"/><path d="M 530 790 L 546 812 L 530 834 L 514 812 Z" fill="#F43B5F"/></g><g data-layer="head"><path d="M 472 668 L 592 668 L 608 800 L 456 800 Z" fill="#E4BBA8"/><ellipse cx="346" cy="466" rx="22" ry="36" fill="#E4BBA8"/><ellipse cx="714" cy="466" rx="22" ry="36" fill="#F6E3D6"/><g clip-path="url(#dracula_face)"><path d="M 530 208 C 639.12 196, 714 292, 706 439.4 C 712 525.4, 658 626, 610.64 676 Q 530 726, 449.36 676 C 402 626, 348 525.4, 354 439.4 C 346 292, 420.88 196, 530 208 Z" fill="#F6E3D6"/><ellipse cx="460" cy="492" rx="54" ry="32" fill="#FFFFFF" opacity="0.16"/><path d="M 550 244 L 706 334 L 698 624 L 563.6 684 L 540 496 Z" fill="#E4BBA8" opacity="0.55"/><path d="M 429.2 584 Q 530 684 630.8 584 L 574.8 694 Q 530 714 485.2 694 Z" fill="#C48B80" opacity="0.28"/><path d="M 404 386 Q 452 384 502 414" fill="none" stroke="#110c0f" stroke-width="12" stroke-linecap="round"/><path d="M 560 414 Q 608 384 658 386" fill="none" stroke="#110c0f" stroke-width="12" stroke-linecap="round"/><g data-layer="eyesOpen"><ellipse cx="452" cy="456" rx="40" ry="12.291999999999998" fill="#F7F1EA"/><ellipse cx="608" cy="456" rx="40" ry="12.291999999999998" fill="#F7F1EA"/><path d="M 412 456 Q 452 435.708 492 456" fill="none" stroke="#C48B80" stroke-width="6" stroke-linecap="round"/><path d="M 568 456 Q 608 435.708 648 456" fill="none" stroke="#C48B80" stroke-width="6" stroke-linecap="round"/></g><g data-layer="pupils"><circle cx="452" cy="457" r="8" fill="#8E1C32"/><circle cx="446" cy="451" r="4.5" fill="#FFFFFF"/><circle cx="608" cy="457" r="8" fill="#8E1C32"/><circle cx="602" cy="451" r="4.5" fill="#FFFFFF"/></g><g data-layer="eyesClosed" opacity="0"><ellipse cx="452" cy="456" rx="42" ry="16.291999999999998" fill="#F6E3D6"/><ellipse cx="608" cy="456" rx="42" ry="16.291999999999998" fill="#F6E3D6"/><path d="M 416 458 Q 452 472 488 458" fill="none" stroke="#C48B80" stroke-width="8" stroke-linecap="round"/><path d="M 572 458 Q 608 472 644 458" fill="none" stroke="#C48B80" stroke-width="8" stroke-linecap="round"/></g><path d="M 522 472 L 550 534 L 514 546 L 502 530 Z" fill="#E4BBA8" opacity="0.85"/><path d="M 536 530 L 548 538 L 534 544 Z" fill="#C48B80" opacity="0.55"/><path d="M 480 630 Q 544 656.5 606 609.375" fill="none" stroke="#7A3040" stroke-width="10" stroke-linecap="round"/></g><path d="M 530 208 C 639.12 196, 714 292, 706 439.4 C 712 525.4, 658 626, 610.64 676 Q 530 726, 449.36 676 C 402 626, 348 525.4, 354 439.4 C 346 292, 420.88 196, 530 208 Z" fill="none" stroke="#C48B80" stroke-width="6" opacity="0.45"/></g><g data-layer="rimGlow" opacity="0.9"><path d="M 530 208 C 639.12 196, 714 292, 706 439.4 C 712 525.4, 658 626, 610.64 676 Q 530 726, 449.36 676 C 402 626, 348 525.4, 354 439.4 C 346 292, 420.88 196, 530 208 Z" fill="none" stroke="#F4EFE6" stroke-width="8" opacity="0.28"/><path d="M 696 294 C 714 456, 642 664, 550 704" fill="none" stroke="#E4C27A" stroke-width="6" opacity="0.35" stroke-linecap="round"/></g><g data-layer="hairFront"><path d="M 344 364 C 336 234, 460 144, 540 292 C 610 136, 724 224, 716 364 L 688 300 C 580 222, 520 250, 372 310 Z" fill="#140E12"/><path d="M 494 206 L 608 186 L 546 242 Z" fill="#3A2A30" opacity="0.55"/><path d="M 360 222 L 372 136 L 452 206 L 494 106 L 530 198 L 566 106 L 608 206 L 688 136 L 700 222 Z" fill="#E4C27A"/><path d="M 360 222 H 700 L 694 246 H 366 Z" fill="#B8893A"/><circle cx="530" cy="198" r="8" fill="#F43B5F"/><circle cx="452" cy="208" r="6" fill="#F43B5F"/><circle cx="608" cy="208" r="6" fill="#F43B5F"/></g><g data-layer="scanFx" opacity="0.08"><rect x="0" y="708" width="1024" height="2" fill="#E4C27A" opacity="0.05"/></g><rect width="1024" height="1024" fill="url(#dracula_vig)"/><circle cx="512" cy="512" r="470" fill="none" stroke="#E4C27A" stroke-width="10" opacity="0.45"/><circle cx="512" cy="512" r="448" fill="none" stroke="#E4C27A" stroke-width="2" opacity="0.28"/></svg>