<svg xmlns="http://www.w3.org/2000/svg" viewBox="0 0 1024 1024" width="1024" height="1024" data-asset="PFP_PORTRAIT" data-style="lda-pfp-v2" data-rig="arena" data-pfp-style="neon-competitive" data-engine="procedural-svg" data-layered="1" data-signature="HOOD" data-character-scale="0.76" data-face-scale="0.52" data-face-top="176" data-face-bottom="708" data-species="human" data-face="androgynous" data-age="adult" data-archetype="antihero" data-cast="reaper" aria-hidden="true"><defs><radialGradient id="reaper_felt" cx="50%" cy="42%" r="68%"><stop offset="0%" stop-color="#241C14"/><stop offset="55%" stop-color="#16130F"/><stop offset="100%" stop-color="#12100C"/></radialGradient><radialGradient id="reaper_team" cx="50%" cy="40%" r="48%"><stop offset="0%" stop-color="#B15CFF" stop-opacity="0.42"/><stop offset="70%" stop-color="#2A2436" stop-opacity="0.2"/><stop offset="100%" stop-color="#2A2436" stop-opacity="0"/></radialGradient><linearGradient id="reaper_metal" x1="0" y1="0" x2="1" y2="1"><stop offset="0%" stop-color="#F2F4F6"/><stop offset="45%" stop-color="#A8B2BA"/><stop offset="100%" stop-color="#5A646C"/></linearGradient><radialGradient id="reaper_vig" cx="50%" cy="46%" r="72%"><stop offset="62%" stop-color="#000000" stop-opacity="0"/><stop offset="100%" stop-color="#000000" stop-opacity="0.4"/></radialGradient><clipPath id="reaper_face"><path d="M 512 208 C 617.4 196, 690 292, 682 439.4 C 688 525.4, 644 626, 595.52 676 Q 512 726, 428.48 676 C 380 626, 336 525.4, 342 439.4 C 334 292, 406.6 196, 512 208 Z"/></clipPath></defs><g data-layer="bg"><rect width="1024" height="1024" fill="url(#reaper_felt)"/></g><g data-layer="bgGrid"><g stroke="#E4C27A" stroke-width="2" opacity="0.07"><path d="M180 0 V1024 M844 0 V1024 M0 180 H1024" fill="none"/></g></g><g data-layer="bgFx"><circle cx="512" cy="460" r="340" fill="url(#reaper_team)"/></g><g data-layer="aura"><ellipse cx="512" cy="430" rx="300" ry="250" fill="#E4C27A" opacity="0.08"/></g><g data-layer="particles"><circle cx="180" cy="220" r="3" fill="#E4C27A" opacity="0.45"/><circle cx="840" cy="260" r="2.5" fill="#E4C27A" opacity="0.35"/><circle cx="760" cy="180" r="2" fill="#B15CFF" opacity="0.4"/></g><g data-layer="hairBack"><path d="M 172 1040 L 212 760 Q 272 420 512 150 Q 752 420 812 760 L 852 1040 Z" fill="#2A2436"/><path d="M 262 980 Q 332 520 472 220 Q 512 160 552 220 Q 692 520 762 980" fill="none" stroke="#14101A" stroke-width="28" opacity="0.65"/></g><g data-layer="torso"><path d="M 142 1040 L 166 860 Q 312 730 434 712 L 590 712 Q 712 730 858 860 L 882 1040 Z" fill="#2A2436"/><path d="M 492 712 L 166 860 L 142 1040 L 432 1040 Z" fill="#4c4756" opacity="0.55"/><path d="M 542 712 L 858 860 L 882 1040 L 582 1040 Z" fill="#14101A" opacity="0.72"/></g><g data-layer="collarFx"><path d="M 312 800 Q 512 700 712 800 Q 512 900 312 800 Z" fill="#14101A"/><circle cx="512" cy="830" r="16" fill="none" stroke="#B15CFF" stroke-width="6"/></g><g data-layer="head"><path d="M 454 668 L 574 668 L 590 800 L 438 800 Z" fill="#C4B6CC"/><ellipse cx="334" cy="466" rx="22" ry="36" fill="#C4B6CC"/><ellipse cx="690" cy="466" rx="22" ry="36" fill="#E4DCE8"/><g clip-path="url(#reaper_face)"><path d="M 512 208 C 617.4 196, 690 292, 682 439.4 C 688 525.4, 644 626, 595.52 676 Q 512 726, 428.48 676 C 380 626, 336 525.4, 342 439.4 C 334 292, 406.6 196, 512 208 Z" fill="#E4DCE8"/><ellipse cx="442" cy="492" rx="54" ry="32" fill="#FFFFFF" opacity="0.16"/><path d="M 532 244 L 682 334 L 674 624 L 546.8 684 L 522 496 Z" fill="#C4B6CC" opacity="0.55"/><path d="M 407.6 584 Q 512 684 616.4 584 L 558.4 694 Q 512 714 465.6 694 Z" fill="#8E8498" opacity="0.28"/><path d="M 386 400 Q 434 378 484 388" fill="none" stroke="#16121d" stroke-width="12" stroke-linecap="round"/><path d="M 542 388 Q 590 378 640 400" fill="none" stroke="#16121d" stroke-width="12" stroke-linecap="round"/><g data-layer="eyesOpen"><ellipse cx="434" cy="456" rx="40" ry="17.92" fill="#F7F1EA"/><ellipse cx="590" cy="456" rx="40" ry="17.92" fill="#F7F1EA"/><path d="M 394 456 Q 434 430.08 474 456" fill="none" stroke="#8E8498" stroke-width="6" stroke-linecap="round"/><path d="M 550 456 Q 590 430.08 630 456" fill="none" stroke="#8E8498" stroke-width="6" stroke-linecap="round"/></g><g data-layer="pupils"><circle cx="434" cy="457" r="11.1104" fill="#6A3CA8"/><circle cx="428" cy="451" r="4.5" fill="#FFFFFF"/><circle cx="590" cy="457" r="11.1104" fill="#6A3CA8"/><circle cx="584" cy="451" r="4.5" fill="#FFFFFF"/></g><g data-layer="eyesClosed" opacity="0"><ellipse cx="434" cy="456" rx="42" ry="21.92" fill="#E4DCE8"/><ellipse cx="590" cy="456" rx="42" ry="21.92" fill="#E4DCE8"/><path d="M 398 458 Q 434 472 470 458" fill="none" stroke="#8E8498" stroke-width="8" stroke-linecap="round"/><path d="M 554 458 Q 590 472 626 458" fill="none" stroke="#8E8498" stroke-width="8" stroke-linecap="round"/></g><path d="M 504 472 L 532 534 L 496 546 L 484 530 Z" fill="#C4B6CC" opacity="0.85"/><path d="M 518 530 L 530 538 L 516 544 Z" fill="#8E8498" opacity="0.55"/><path d="M 464 624 L 560 625" fill="none" stroke="#7A4048" stroke-width="9" stroke-linecap="round"/></g><path d="M 512 208 C 617.4 196, 690 292, 682 439.4 C 688 525.4, 644 626, 595.52 676 Q 512 726, 428.48 676 C 380 626, 336 525.4, 342 439.4 C 334 292, 406.6 196, 512 208 Z" fill="none" stroke="#8E8498" stroke-width="6" opacity="0.45"/></g><g data-layer="rimGlow" opacity="0.9"><path d="M 512 208 C 617.4 196, 690 292, 682 439.4 C 688 525.4, 644 626, 595.52 676 Q 512 726, 428.48 676 C 380 626, 336 525.4, 342 439.4 C 334 292, 406.6 196, 512 208 Z" fill="none" stroke="#F4EFE6" stroke-width="8" opacity="0.28"/><path d="M 672 294 C 690 456, 628 664, 532 704" fill="none" stroke="#B15CFF" stroke-width="6" opacity="0.35" stroke-linecap="round"/></g><g data-layer="hairFront"><path d="M 306 274 Q 512 124 718 274 L 638 664 Q 512 700 386 664 Z" fill="none" stroke="#B15CFF" stroke-width="22"/></g><g data-layer="scanFx" opacity="0.08"><rect x="0" y="708" width="1024" height="2" fill="#E4C27A" opacity="0.05"/></g><rect width="1024" height="1024" fill="url(#reaper_vig)"/><circle cx="512" cy="512" r="470" fill="none" stroke="#E4C27A" stroke-width="10" opacity="0.45"/><circle cx="512" cy="512" r="448" fill="none" stroke="#E4C27A" stroke-width="2" opacity="0.28"/></svg>